<svg xmlns="http://www.w3.org/2000/svg" viewBox="0 0 1440 320">
  <path fill="white" fill-opacity="1" d="M0,288L34.3,250.7C68.6,213,137,139,206,133.3C274.3,128,343,192,411,181.3C480,171,549,85,617,85.3C685.7,85,754,171,823,176C891.4,181,960,107,1029,101.3C1097.1,96,1166,160,1234,208C1302.9,256,1371,288,1406,304L1440,320L1440,320L1405.7,320C1371.4,320,1303,320,1234,320C1165.7,320,1097,320,1029,320C960,320,891,320,823,320C754.3,320,686,320,617,320C548.6,320,480,320,411,320C342.9,320,274,320,206,320C137.1,320,69,320,34,320L0,320Z"></path>
</svg>